# xmcd
#
# Track frame offsets:
#	150
#	14965
#	28013
#	42071
#	54062
#	67716
#	79703
#	92565
#	106707
#	120169
#	134088
#	146614
#	157781
#	169201
#	181223
#	195547
#	209432
#	223042
#	233658
#	245012
#
# Disc length: 3433 seconds
#
# Revision: 0
# Processed by: cddbd v1.5.2PL0 Copyright (c) Steve Scherf et al.
# Submitted via: dBpowerAMP V4.0
#
DISCID=060d6714
DTITLE=T-Bone Walker - The Hustle Is On
DYEAR=1900
DGENRE=Blues
TTITLE0=I Got A Break Baby
TTITLE1=Mean Old World
TTITLE2=Come Back To Me Baby
TTITLE3=Bobby Sox Baby
TTITLE4=Call It Stormy Monday
TTITLE5=She's My Old Time Used To Be
TTITLE6=Long Skirt Baby Blues
TTITLE7=So Blue Blues
TTITLE8=T-Bone Shuffle
TTITLE9=She's The No Sleepin'est Woman
TTITLE10=West Side Baby
TTITLE11=Strollin' With Bone
TTITLE12=The Hustle Is On
TTITLE13=Alimony Blues
TTITLE14=Cold, Cold Feeling
TTITLE15=Street Walking Woman
TTITLE16=Here In The Dark
TTITLE17=Pony Tail
TTITLE18=Play On Little Girl
TTITLE19=Papa Ain't Salty
EXTD=UK Issue on The Essential Blue Archive label\n"SPV 97772 CD"
EXTT0=
EXTT1=
EXTT2=
EXTT3=
EXTT4=
EXTT5=
EXTT6=
EXTT7=
EXTT8=
EXTT9=
EXTT10=
EXTT11=
EXTT12=
EXTT13=
EXTT14=
EXTT15=
EXTT16=
EXTT17=
EXTT18=
EXTT19=
PLAYORDER=
